HIERARCHY
ROOT Hips
{
 OFFSET 0.000000 0.000000 0.000000
 CHANNELS 6 Xposition Yposition Zposition Yrotation Xrotation Zrotation
 JOINT Chest
 {
  OFFSET 0.000000 9.303000 0.001900
  CHANNELS 3 Yrotation Xrotation Zrotation
  JOINT Chest2
  {
   OFFSET 0.000000 9.301100 -0.003900
   CHANNELS 3 Yrotation Xrotation Zrotation
   JOINT Chest3
   {
    OFFSET 0.000000 9.262800 0.000000
    CHANNELS 3 Yrotation Xrotation Zrotation
    JOINT Chest4
    {
     OFFSET 0.000000 9.253300 0.000000
     CHANNELS 3 Yrotation Xrotation Zrotation
     JOINT Neck
     {
      OFFSET 0.000000 14.010300 0.000000
      CHANNELS 3 Yrotation Xrotation Zrotation
      JOINT Head
      {
       OFFSET 0.000000 8.657600 -0.008300
       CHANNELS 3 Yrotation Xrotation Zrotation
       End Site
       {
        OFFSET 0.000000 16.540200 -0.004400
       }
      }
     }
     JOINT RightCollar
     {
      OFFSET -2.834100 9.267700 0.000000
      CHANNELS 3 Yrotation Xrotation Zrotation
      JOINT RightShoulder
      {
       OFFSET -13.135200 0.000000 0.000000
       CHANNELS 3 Yrotation Xrotation Zrotation
       JOINT RightElbow
       {
        OFFSET 0.000000 -28.893500 0.000000
        CHANNELS 3 Yrotation Xrotation Zrotation
        JOINT RightWrist
        {
         OFFSET 0.000000 -23.344000 0.000000
         CHANNELS 3 Yrotation Xrotation Zrotation
         End Site
         {
          OFFSET 0.000000 -17.223000 0.000000
         }
        }
       }
      }
     }
     JOINT LeftCollar
     {
      OFFSET 2.834100 9.267700 0.000000
      CHANNELS 3 Yrotation Xrotation Zrotation
      JOINT LeftShoulder
      {
       OFFSET 13.135200 0.000000 0.000000
       CHANNELS 3 Yrotation Xrotation Zrotation
       JOINT LeftElbow
       {
        OFFSET 0.000000 -28.893500 0.000000
        CHANNELS 3 Yrotation Xrotation Zrotation
        JOINT LeftWrist
        {
         OFFSET 0.000000 -23.344000 0.000000
         CHANNELS 3 Yrotation Xrotation Zrotation
         End Site
         {
          OFFSET 0.000000 -17.223000 0.000000
         }
        }
       }
      }
     }
    }
   }
  }
 }
 JOINT RightHip
 {
  OFFSET -7.547200 -0.009500 -0.001000
  CHANNELS 3 Yrotation Xrotation Zrotation
  JOINT RightKnee
  {
   OFFSET 0.000000 -39.762800 0.000900
   CHANNELS 3 Yrotation Xrotation Zrotation
   JOINT RightAnkle
   {
    OFFSET 0.000000 -38.588200 0.001600
    CHANNELS 3 Yrotation Xrotation Zrotation
    JOINT RightToe
    {
     OFFSET 0.000000 -4.693300 10.419700
     CHANNELS 3 Yrotation Xrotation Zrotation
     End Site
     {
      OFFSET 0.000000 -1.379900 5.669300
     }
    }
   }
  }
 }
 JOINT LeftHip
 {
  OFFSET 7.547200 -0.009500 -0.001000
  CHANNELS 3 Yrotation Xrotation Zrotation
  JOINT LeftKnee
  {
   OFFSET 0.000000 -39.762800 0.000900
   CHANNELS 3 Yrotation Xrotation Zrotation
   JOINT LeftAnkle
   {
    OFFSET 0.000000 -38.588200 0.001600
    CHANNELS 3 Yrotation Xrotation Zrotation
    JOINT LeftToe
    {
     OFFSET 0.000000 -4.693300 10.419700
     CHANNELS 3 Yrotation Xrotation Zrotation
     End Site
     {
      OFFSET 0.000000 -1.379900 5.669300
     }
    }
   }
  }
 }
}
MOTION
Frames: 12
Frame Time: 0.008333
0.000000 82.880600 0.000000 0.000000 -5.767877 0.000000 0.000000 11.653817 0.000000 0.000000 -5.885947 0.000000 0.000000 -0.000000 0.000000 0.000000 -0.000000 0.000000 0.000000 12.528835 0.000000 0.000000 0.711642 0.000000 0.000000 -0.000000 0.000000 0.000000 0.000000 -90.000000 0.000000 -2.309062 0.000000 0.000000 2.309062 0.000000 0.000000 -0.000000 0.000000 0.000000 -0.000000 90.000000 0.000000 -2.309062 0.000000 0.000000 2.309062 0.000000 0.000000 8.520406 0.000000 0.000000 1.905762 0.000000 -0.000000 -4.658285 0.000000 0.000000 -0.000000 0.000000 0.000000 8.520406 0.000000 0.000000 1.905762 0.000000 -0.000000 -4.658285 0.000000 0.000000 -0.000000 0.000000
5.178240 44.882682 4.564078 167.585518 -13.554809 -0.684997 2.069188 7.741028 1.103871 0.090932 0.370276 0.035274 0.162352 0.647545 0.060509 1.938956 7.297667 0.767181 -1.423637 23.337006 -0.374820 -1.448880 -0.640009 -0.078873 0.691393 5.783264 -5.697077 -1.713302 -2.767234 -1.135189 -69.529981 -77.709954 83.486339 -10.463071 -8.222333 -22.719566 -8.191434 4.262458 -4.099604 17.203932 -6.099342 8.671807 53.088627 -59.544659 -75.017381 6.458154 0.362225 13.315569 -17.851783 -74.839693 11.712992 -110.059837 83.800529 -112.094974 -9.076078 -8.225408 0.061750 -0.083136 0.292864 -0.029820 -6.129680 -71.148550 24.422064 157.255044 69.045719 154.850597 -10.129089 -24.916621 3.608494 -0.065188 -0.301151 -0.032191
5.181060 44.882846 4.564973 167.585707 -13.547283 -0.692650 2.081315 7.737585 1.107942 0.085641 0.368502 0.037717 0.180772 0.655107 0.051394 1.934190 7.293870 0.766571 -1.432772 23.344555 -0.379710 -1.457622 -0.630823 -0.082140 0.692837 5.773321 -5.691406 -1.724106 -2.768024 -1.158763 -69.558039 -77.695298 83.514734 -10.466349 -8.220865 -22.709903 -8.201831 4.261056 -4.087956 17.203750 -6.098910 8.669505 53.094213 -59.540434 -75.015154 6.452511 0.363848 13.309128 -17.889573 -74.843114 11.751684 -110.076633 83.802413 -112.116396 -9.020499 -8.227662 0.051920 -0.064281 0.292441 -0.022596 -6.153698 -71.155512 24.447713 157.248306 69.046077 154.846498 -10.129038 -24.916947 3.607332 -0.064919 -0.299689 -0.033182
5.182545 44.883389 4.564238 167.586106 -13.547246 -0.689328 2.089211 7.741501 1.101913 0.088175 0.367873 0.036118 0.178931 0.656031 0.052191 1.959782 7.301173 0.745580 -1.449616 23.344253 -0.367997 -1.466583 -0.600843 -0.107777 0.676451 5.758200 -5.667077 -1.732692 -2.770318 -1.182499 -69.569262 -77.681121 83.530466 -10.479244 -8.223167 -22.714785 -8.227776 4.257433 -4.059252 17.202457 -6.098460 8.665713 53.098216 -59.535239 -75.009091 6.443651 0.362365 13.303373 -17.879343 -74.843463 11.744462 -110.103652 83.806783 -112.147801 -9.014801 -8.229281 0.053193 -0.045240 0.292744 -0.020994 -6.142048 -71.155482 24.432933 157.246329 69.045193 154.847576 -10.123590 -24.916927 3.602843 -0.070958 -0.301004 -0.032651
5.183861 44.883914 4.563860 167.588907 -13.544372 -0.686000 2.096884 7.741820 1.095085 0.089422 0.371223 0.034819 0.170106 0.651146 0.056187 1.970220 7.302965 0.739260 -1.449931 23.367520 -0.392932 -1.476065 -0.605520 -0.088976 0.677065 5.753381 -5.662751 -1.743437 -2.770909 -1.190592 -69.543644 -77.687277 83.515723 -10.492825 -8.230741 -22.711393 -8.209051 4.281061 -4.065240 17.183111 -6.108845 8.662126 53.103588 -59.542363 -75.015472 6.446723 0.368057 13.309703 -17.872702 -74.846823 11.738436 -110.110746 83.808696 -112.157529 -9.021094 -8.228782 0.056489 -0.096451 0.290732 -0.024795 -6.141565 -71.157985 24.426680 157.240753 69.044013 154.841433 -10.119653 -24.913544 3.599518 -0.071322 -0.304048 -0.033183
5.185628 44.884565 4.563261 167.592663 -13.543505 -0.685994 2.104643 7.743966 1.090212 0.090600 0.369234 0.036275 0.170617 0.651553 0.055785 1.962342 7.301887 0.741661 -1.447509 23.379364 -0.404000 -1.479086 -0.598108 -0.091179 0.684997 5.753000 -5.667088 -1.754997 -2.772443 -1.196051 -69.523310 -77.692490 83.494389 -10.474521 -8.239754 -22.712711 -8.198187 4.290719 -4.071730 17.191960 -6.093539 8.641386 53.096559 -59.563049 -75.023201 6.432397 0.364784 13.304944 -17.875125 -74.847458 11.739439 -110.170441 83.818441 -112.222512 -9.025514 -8.227348 0.063225 -0.068444 0.285863 -0.027614 -6.149672 -71.157592 24.431432 157.238940 69.044983 154.839156 -10.120540 -24.909818 3.598939 -0.068305 -0.305433 -0.033737
5.185570 44.885215 4.562199 167.600302 -13.543269 -0.676473 2.102485 7.746436 1.074371 0.091417 0.371889 0.037422 0.171232 0.652194 0.055448 1.967455 7.305392 0.737729 -1.451140 23.379081 -0.402798 -1.478257 -0.588725 -0.097289 0.683469 5.744220 -5.666021 -1.761432 -2.771372 -1.226349 -69.512892 -77.698572 83.469676 -10.484068 -8.253160 -22.713864 -8.203288 4.286647 -4.065202 17.199880 -6.085740 8.628109 53.085308 -59.574625 -75.022539 6.438040 0.363387 13.309475 -17.845882 -74.850614 11.705630 -110.168385 83.816046 -112.218942 -9.074788 -8.228272 0.067262 -0.079557 0.284662 -0.030493 -6.118642 -71.154521 24.390476 157.235254 69.051823 154.833433 -10.115700 -24.912918 3.600783 -0.068298 -0.298793 -0.034121
5.185755 44.885810 4.561327 167.607205 -13.542711 -0.669917 2.101136 7.748420 1.061741 0.092182 0.371392 0.036200 0.178708 0.655939 0.050017 1.966218 7.303904 0.741323 -1.456940 23.377405 -0.395152 -1.472946 -0.575469 -0.110050 0.679813 5.741127 -5.665734 -1.767686 -2.769918 -1.227608 -69.486191 -77.733859 83.429625 -10.479318 -8.263259 -22.722180 -8.209110 4.286490 -4.059924 17.206382 -6.078000 8.613513 53.072733 -59.585436 -75.019044 6.440560 0.370252 13.316458 -17.819531 -74.855327 11.677630 -110.199003 83.817404 -112.248007 -9.126313 -8.224687 0.070610 -0.084979 0.279820 -0.030892 -6.098405 -71.155163 24.362188 157.235973 69.054738 154.834050 -10.118557 -24.910585 3.605861 -0.071914 -0.299362 -0.036156
5.187036 44.886257 4.561199 167.608534 -13.539742 -0.671169 2.106366 7.749095 1.059131 0.098814 0.374362 0.031062 0.172805 0.653826 0.054673 1.980983 7.312566 0.729270 -1.461907 23.374817 -0.386041 -1.474287 -0.575371 -0.105456 0.663860 5.728329 -5.651212 -1.770485 -2.769701 -1.225980 -69.432458 -77.775853 83.356988 -10.464790 -8.273777 -22.726520 -8.204364 4.295183 -4.048773 17.189781 -6.086777 8.600209 53.051520 -59.560534 -74.992406 6.432611 0.386062 13.323070 -17.817001 -74.860422 11.674682 -110.247224 83.818549 -112.295034 -9.134739 -8.217696 0.070068 -0.076086 0.272351 -0.028559 -6.101516 -71.157808 24.364525 157.235263 69.055102 154.834181 -10.120795 -24.911604 3.609683 -0.075236 -0.298492 -0.038308
5.188782 44.886859 4.560387 167.617373 -13.542250 -0.677716 2.101626 7.753773 1.062338 0.098911 0.374551 0.030971 0.176176 0.656367 0.053113 1.983748 7.315360 0.726132 -1.453971 23.385066 -0.393998 -1.485022 -0.589708 -0.086498 0.657823 5.721241 -5.649406 -1.766378 -2.765237 -1.235445 -69.416303 -77.817732 83.314239 -10.451831 -8.280780 -22.731749 -8.206979 4.294541 -4.043744 17.193199 -6.080546 8.583379 53.029348 -59.557574 -74.977077 6.429641 0.389654 13.326734 -17.831901 -74.856944 11.678224 -110.319191 83.817992 -112.364310 -9.137750 -8.221709 0.067217 -0.064164 0.270082 -0.025228 -6.119236 -71.155762 24.375884 157.234405 69.055631 154.833675 -10.120617 -24.912389 3.611306 -0.078481 -0.297783 -0.038536
5.190626 44.887072 4.561291 167.615121 -13.535143 -0.686350 2.107850 7.748684 1.070649 0.099033 0.374772 0.030907 0.179697 0.657898 0.051189 1.986599 7.317544 0.724436 -1.448403 23.387085 -0.393189 -1.483433 -0.585104 -0.087030 0.654394 5.720314 -5.653883 -1.751074 -2.758732 -1.247119 -69.485631 -77.830015 83.353741 -10.408799 -8.281105 -22.752795 -8.209323 4.295222 -4.041415 17.191805 -6.080779 8.576851 53.009306 -59.541562 -74.962407 6.428558 0.392930 13.327141 -17.869273 -74.860120 11.715540 -110.335797 83.820543 -112.384780 -9.123263 -8.219136 0.063746 -0.046535 0.268288 -0.018930 -6.146481 -71.161717 24.410607 157.240475 69.056644 154.837157 -10.119899 -24.915030 3.613020 -0.082679 -0.295401 -0.037859
5.191048 44.887510 4.560986 167.616806 -13.534267 -0.687867 2.112594 7.750489 1.069761 0.104527 0.377889 0.027280 0.171427 0.653807 0.056035 1.988214 7.318314 0.723995 -1.436838 23.393082 -0.396397 -1.478645 -0.583830 -0.085770 0.658991 5.723361 -5.673011 -1.751774 -2.755919 -1.230602 -69.499683 -77.855957 83.347969 -10.385365 -8.279462 -22.766491 -8.197272 4.300451 -4.047832 17.179691 -6.083015 8.576308 52.994647 -59.531912 -74.953626 6.436011 0.400623 13.326277 -17.877543 -74.860327 11.721858 -110.340202 83.823882 -112.385940 -9.177035 -8.217978 0.063946 -0.045487 0.267246 -0.018012 -6.151261 -71.164645 24.416094 157.248621 69.054571 154.843176 -10.117397 -24.912559 3.615415 -0.081073 -0.299954 -0.038199
